<mxfile host="app.diagrams.net" modified="2023-06-01T15:32:31.605Z" agent="Mozilla/5.0 (Windows NT 10.0; Win64; x64) AppleWebKit/537.36 (KHTML, like Gecko) Chrome/113.0.0.0 Safari/537.36" etag="3muKQtgFiCdzOeNs9Ng1" version="21.3.6" type="device" pages="6">
  <diagram id="D4aHF3-9OTjveUWZ38LG" name="Weather">
    <mxGraphModel dx="2284" dy="1896" grid="1" gridSize="10" guides="1" tooltips="1" connect="1" arrows="1" fold="1" page="1" pageScale="1" pageWidth="850" pageHeight="1100" math="0" shadow="0">
      <root>
        <mxCell id="0" />
        <mxCell id="1" parent="0" />
        <mxCell id="g0XclLsOpEEGEIO17Uud-1" value="Weather Collection Service" style="rounded=0;whiteSpace=wrap;html=1;fontSize=18;fontStyle=1;strokeWidth=2;" parent="1" vertex="1">
          <mxGeometry x="90" y="140" width="140" height="75" as="geometry" />
        </mxCell>
        <mxCell id="g0XclLsOpEEGEIO17Uud-4" value="Notification Service" style="rounded=0;whiteSpace=wrap;html=1;fontSize=18;fontStyle=1;strokeWidth=2;" parent="1" vertex="1">
          <mxGeometry x="388" y="490" width="122" height="70" as="geometry" />
        </mxCell>
        <mxCell id="g0XclLsOpEEGEIO17Uud-10" value="Data Processing Service" style="rounded=0;whiteSpace=wrap;html=1;fontSize=18;fontStyle=1;strokeWidth=2;" parent="1" vertex="1">
          <mxGeometry x="360" y="270" width="133" height="70" as="geometry" />
        </mxCell>
        <mxCell id="g0XclLsOpEEGEIO17Uud-13" value="Forecast Service" style="rounded=0;whiteSpace=wrap;html=1;fontSize=18;fontStyle=1;strokeWidth=2;" parent="1" vertex="1">
          <mxGeometry x="100" y="400" width="120" height="60" as="geometry" />
        </mxCell>
        <mxCell id="g0XclLsOpEEGEIO17Uud-14" value="Location Service" style="rounded=0;whiteSpace=wrap;html=1;fontSize=18;fontStyle=1;strokeWidth=2;" parent="1" vertex="1">
          <mxGeometry x="100" y="600" width="120" height="60" as="geometry" />
        </mxCell>
        <mxCell id="g0XclLsOpEEGEIO17Uud-15" value="Discovery Server" style="rounded=0;whiteSpace=wrap;html=1;fontSize=18;fontStyle=1;strokeWidth=2;" parent="1" vertex="1">
          <mxGeometry x="-360" y="40" width="170" height="70" as="geometry" />
        </mxCell>
        <mxCell id="g0XclLsOpEEGEIO17Uud-16" value="API&lt;br style=&quot;font-size: 18px;&quot;&gt;Gateway" style="rounded=0;whiteSpace=wrap;html=1;fontSize=18;fontStyle=1;strokeWidth=2;" parent="1" vertex="1">
          <mxGeometry x="-310" y="400" width="120" height="60" as="geometry" />
        </mxCell>
        <mxCell id="g0XclLsOpEEGEIO17Uud-17" value="User" style="shape=umlActor;verticalLabelPosition=bottom;verticalAlign=top;html=1;outlineConnect=0;fontSize=18;strokeWidth=2;fontStyle=1" parent="1" vertex="1">
          <mxGeometry x="-500" y="495" width="30" height="60" as="geometry" />
        </mxCell>
        <mxCell id="g0XclLsOpEEGEIO17Uud-18" value="" style="endArrow=classic;html=1;rounded=0;entryX=0;entryY=0.5;entryDx=0;entryDy=0;fontSize=18;startArrow=classic;startFill=1;fontStyle=1;strokeWidth=2;" parent="1" source="g0XclLsOpEEGEIO17Uud-17" target="g0XclLsOpEEGEIO17Uud-16" edge="1">
          <mxGeometry width="50" height="50" relative="1" as="geometry">
            <mxPoint x="-180" y="530" as="sourcePoint" />
            <mxPoint x="-130" y="480" as="targetPoint" />
          </mxGeometry>
        </mxCell>
        <mxCell id="g0XclLsOpEEGEIO17Uud-19" value="" style="endArrow=classic;html=1;rounded=0;exitX=1;exitY=0.5;exitDx=0;exitDy=0;entryX=0;entryY=0.5;entryDx=0;entryDy=0;fontSize=18;fontStyle=1;strokeWidth=2;" parent="1" source="g0XclLsOpEEGEIO17Uud-16" target="g0XclLsOpEEGEIO17Uud-1" edge="1">
          <mxGeometry width="50" height="50" relative="1" as="geometry">
            <mxPoint x="150" y="430" as="sourcePoint" />
            <mxPoint x="200" y="380" as="targetPoint" />
          </mxGeometry>
        </mxCell>
        <mxCell id="g0XclLsOpEEGEIO17Uud-21" value="" style="endArrow=classic;html=1;rounded=0;exitX=1;exitY=0.5;exitDx=0;exitDy=0;entryX=0;entryY=0.5;entryDx=0;entryDy=0;fontSize=18;fontStyle=1;strokeWidth=2;" parent="1" source="g0XclLsOpEEGEIO17Uud-16" target="g0XclLsOpEEGEIO17Uud-13" edge="1">
          <mxGeometry width="50" height="50" relative="1" as="geometry">
            <mxPoint x="150" y="430" as="sourcePoint" />
            <mxPoint x="200" y="380" as="targetPoint" />
          </mxGeometry>
        </mxCell>
        <mxCell id="g0XclLsOpEEGEIO17Uud-23" value="" style="endArrow=classic;html=1;rounded=0;entryX=0;entryY=0.5;entryDx=0;entryDy=0;exitX=1;exitY=0.5;exitDx=0;exitDy=0;fontSize=18;fontStyle=1;strokeWidth=2;" parent="1" source="g0XclLsOpEEGEIO17Uud-16" target="g0XclLsOpEEGEIO17Uud-14" edge="1">
          <mxGeometry width="50" height="50" relative="1" as="geometry">
            <mxPoint x="150" y="430" as="sourcePoint" />
            <mxPoint x="200" y="380" as="targetPoint" />
          </mxGeometry>
        </mxCell>
        <mxCell id="g0XclLsOpEEGEIO17Uud-25" value="" style="endArrow=classic;html=1;rounded=0;entryX=0;entryY=0.5;entryDx=0;entryDy=0;fontSize=18;fontStyle=1;strokeWidth=2;" parent="1" target="g0XclLsOpEEGEIO17Uud-10" edge="1">
          <mxGeometry width="50" height="50" relative="1" as="geometry">
            <mxPoint x="220" y="430" as="sourcePoint" />
            <mxPoint x="200" y="380" as="targetPoint" />
          </mxGeometry>
        </mxCell>
        <mxCell id="g0XclLsOpEEGEIO17Uud-27" value="" style="endArrow=classic;html=1;rounded=0;entryX=1;entryY=0.5;entryDx=0;entryDy=0;exitX=0;exitY=0.5;exitDx=0;exitDy=0;fontSize=18;fontStyle=1;strokeWidth=2;" parent="1" source="g0XclLsOpEEGEIO17Uud-10" target="g0XclLsOpEEGEIO17Uud-1" edge="1">
          <mxGeometry width="50" height="50" relative="1" as="geometry">
            <mxPoint x="350" y="230" as="sourcePoint" />
            <mxPoint x="400" y="180" as="targetPoint" />
          </mxGeometry>
        </mxCell>
        <mxCell id="g0XclLsOpEEGEIO17Uud-32" value="Processed Weather&lt;br style=&quot;font-size: 18px;&quot;&gt;DB" style="shape=cylinder3;whiteSpace=wrap;html=1;boundedLbl=1;backgroundOutline=1;size=15;fontSize=18;fontStyle=1;strokeWidth=2;" parent="1" vertex="1">
          <mxGeometry x="503" y="260" width="107" height="110" as="geometry" />
        </mxCell>
        <mxCell id="g0XclLsOpEEGEIO17Uud-35" value="Location&lt;br style=&quot;font-size: 18px;&quot;&gt;DB" style="shape=cylinder3;whiteSpace=wrap;html=1;boundedLbl=1;backgroundOutline=1;size=15;fontSize=18;fontStyle=1;strokeWidth=2;" parent="1" vertex="1">
          <mxGeometry x="230" y="590" width="90" height="100" as="geometry" />
        </mxCell>
        <mxCell id="2pmE7jiRzLaRKR8Mcd-x-2" value="" style="endArrow=classic;html=1;rounded=0;exitX=1;exitY=0.5;exitDx=0;exitDy=0;entryX=0;entryY=0.5;entryDx=0;entryDy=0;fontSize=18;fontStyle=1;strokeWidth=2;" parent="1" source="g0XclLsOpEEGEIO17Uud-13" target="g0XclLsOpEEGEIO17Uud-4" edge="1">
          <mxGeometry width="50" height="50" relative="1" as="geometry">
            <mxPoint x="210" y="430" as="sourcePoint" />
            <mxPoint x="260" y="380" as="targetPoint" />
          </mxGeometry>
        </mxCell>
        <mxCell id="_Km4fkRmNcbz_M5PQY4o-1" value="" style="ellipse;shape=cloud;whiteSpace=wrap;html=1;fontSize=18;fontStyle=1;strokeWidth=2;" parent="1" vertex="1">
          <mxGeometry x="-510" y="245" width="100" height="70" as="geometry" />
        </mxCell>
        <mxCell id="_Km4fkRmNcbz_M5PQY4o-2" value="Weather Stations" style="shape=datastore;whiteSpace=wrap;html=1;fontSize=18;fontStyle=1;strokeWidth=2;" parent="1" vertex="1">
          <mxGeometry x="-540" y="280" width="80" height="95" as="geometry" />
        </mxCell>
        <mxCell id="_Km4fkRmNcbz_M5PQY4o-3" value="" style="endArrow=classic;html=1;rounded=0;exitX=1;exitY=0.5;exitDx=0;exitDy=0;entryX=0;entryY=0.5;entryDx=0;entryDy=0;fontSize=18;fontStyle=1;strokeWidth=2;" parent="1" source="_Km4fkRmNcbz_M5PQY4o-2" target="g0XclLsOpEEGEIO17Uud-16" edge="1">
          <mxGeometry width="50" height="50" relative="1" as="geometry">
            <mxPoint x="20" y="250" as="sourcePoint" />
            <mxPoint x="70" y="200" as="targetPoint" />
          </mxGeometry>
        </mxCell>
        <mxCell id="_Km4fkRmNcbz_M5PQY4o-4" value="&lt;font style=&quot;font-size: 18px;&quot;&gt;Weather Forecast Application&lt;/font&gt;" style="swimlane;whiteSpace=wrap;html=1;fontStyle=1;fontSize=18;strokeWidth=2;" parent="1" vertex="1">
          <mxGeometry x="-380" width="1000" height="710" as="geometry" />
        </mxCell>
        <mxCell id="2pmE7jiRzLaRKR8Mcd-x-1" value="api/location" style="text;html=1;strokeColor=none;fillColor=none;align=center;verticalAlign=middle;whiteSpace=wrap;rounded=0;fontSize=18;fontStyle=1;strokeWidth=2;" parent="_Km4fkRmNcbz_M5PQY4o-4" vertex="1">
          <mxGeometry x="380" y="520" width="60" height="30" as="geometry" />
        </mxCell>
        <mxCell id="g0XclLsOpEEGEIO17Uud-22" value="api/forecast" style="text;html=1;strokeColor=none;fillColor=none;align=center;verticalAlign=middle;whiteSpace=wrap;rounded=0;fontSize=18;fontStyle=1;strokeWidth=2;" parent="_Km4fkRmNcbz_M5PQY4o-4" vertex="1">
          <mxGeometry x="320" y="390" width="60" height="30" as="geometry" />
        </mxCell>
        <mxCell id="g0XclLsOpEEGEIO17Uud-20" value="api/weather-data" style="text;html=1;strokeColor=none;fillColor=none;align=center;verticalAlign=middle;whiteSpace=wrap;rounded=0;fontSize=18;fontStyle=1;strokeWidth=2;" parent="_Km4fkRmNcbz_M5PQY4o-4" vertex="1">
          <mxGeometry x="230" y="270" width="110" height="30" as="geometry" />
        </mxCell>
      </root>
    </mxGraphModel>
  </diagram>
  <diagram id="yV8q33Pv0wYQYBqdATzx" name="monolith">
    <mxGraphModel dx="3718" dy="1478" grid="1" gridSize="10" guides="1" tooltips="1" connect="1" arrows="1" fold="1" page="1" pageScale="1" pageWidth="850" pageHeight="1100" math="0" shadow="0">
      <root>
        <mxCell id="0" />
        <mxCell id="1" parent="0" />
        <mxCell id="1wNAeoTAEA89-M-hiHn3-5" value="" style="ellipse;shape=cloud;whiteSpace=wrap;html=1;" vertex="1" parent="1">
          <mxGeometry x="370" y="90" width="120" height="80" as="geometry" />
        </mxCell>
        <mxCell id="1wNAeoTAEA89-M-hiHn3-1" value="User" style="shape=umlActor;verticalLabelPosition=bottom;verticalAlign=top;html=1;outlineConnect=0;fontSize=16;strokeWidth=2;" vertex="1" parent="1">
          <mxGeometry x="-110" y="450" width="40" height="70" as="geometry" />
        </mxCell>
        <mxCell id="1wNAeoTAEA89-M-hiHn3-4" value="Weather Stations" style="shape=datastore;whiteSpace=wrap;html=1;fontSize=16;" vertex="1" parent="1">
          <mxGeometry x="350" y="130" width="77.78" height="100" as="geometry" />
        </mxCell>
        <mxCell id="1wNAeoTAEA89-M-hiHn3-10" value="&lt;font style=&quot;font-size: 20px;&quot;&gt;&lt;b&gt;Weather Forecast&lt;br&gt;Application&lt;/b&gt;&lt;/font&gt;" style="rounded=0;whiteSpace=wrap;html=1;" vertex="1" parent="1">
          <mxGeometry x="135" y="327.5" width="500" height="295" as="geometry" />
        </mxCell>
        <mxCell id="1wNAeoTAEA89-M-hiHn3-12" value="" style="endArrow=classic;html=1;rounded=0;strokeWidth=2;" edge="1" parent="1">
          <mxGeometry width="50" height="50" relative="1" as="geometry">
            <mxPoint x="-40" y="475" as="sourcePoint" />
            <mxPoint x="110" y="475" as="targetPoint" />
          </mxGeometry>
        </mxCell>
        <mxCell id="1wNAeoTAEA89-M-hiHn3-13" value="" style="endArrow=none;html=1;rounded=0;strokeWidth=2;endFill=0;startArrow=classic;startFill=1;" edge="1" parent="1">
          <mxGeometry width="50" height="50" relative="1" as="geometry">
            <mxPoint x="-40" y="510" as="sourcePoint" />
            <mxPoint x="110" y="510" as="targetPoint" />
          </mxGeometry>
        </mxCell>
        <mxCell id="1wNAeoTAEA89-M-hiHn3-15" value="" style="endArrow=classic;html=1;rounded=0;strokeWidth=2;" edge="1" parent="1">
          <mxGeometry width="50" height="50" relative="1" as="geometry">
            <mxPoint x="386" y="240" as="sourcePoint" />
            <mxPoint x="386" y="320" as="targetPoint" />
          </mxGeometry>
        </mxCell>
        <mxCell id="1wNAeoTAEA89-M-hiHn3-16" value="&lt;font style=&quot;font-size: 14px;&quot;&gt;Location information&lt;/font&gt;" style="text;html=1;align=center;verticalAlign=middle;resizable=0;points=[];autosize=1;strokeColor=none;fillColor=none;" vertex="1" parent="1">
          <mxGeometry x="-45" y="437" width="150" height="30" as="geometry" />
        </mxCell>
        <mxCell id="1wNAeoTAEA89-M-hiHn3-18" value="&lt;font style=&quot;font-size: 14px;&quot;&gt;Weather Forecast&lt;/font&gt;" style="text;html=1;align=center;verticalAlign=middle;resizable=0;points=[];autosize=1;strokeColor=none;fillColor=none;" vertex="1" parent="1">
          <mxGeometry x="-35" y="520" width="130" height="30" as="geometry" />
        </mxCell>
        <mxCell id="1wNAeoTAEA89-M-hiHn3-19" value="&lt;font style=&quot;font-size: 14px;&quot;&gt;Weather &lt;br&gt;measurements&lt;/font&gt;" style="text;html=1;align=center;verticalAlign=middle;resizable=0;points=[];autosize=1;strokeColor=none;fillColor=none;" vertex="1" parent="1">
          <mxGeometry x="382" y="250" width="120" height="50" as="geometry" />
        </mxCell>
        <mxCell id="144d9AOUhKYhZv8kxO5Z-1" value="Black box schema" style="swimlane;whiteSpace=wrap;html=1;" vertex="1" parent="1">
          <mxGeometry x="-170" width="880" height="800" as="geometry" />
        </mxCell>
      </root>
    </mxGraphModel>
  </diagram>
  <diagram id="aBVRVn2990LTIOd-p0am" name="mono-teorija">
    <mxGraphModel dx="1434" dy="796" grid="1" gridSize="10" guides="1" tooltips="1" connect="1" arrows="1" fold="1" page="1" pageScale="1" pageWidth="850" pageHeight="1100" math="0" shadow="0">
      <root>
        <mxCell id="0" />
        <mxCell id="1" parent="0" />
        <mxCell id="G_OCvJnUFlwm8RyXSFIp-2" value="&lt;font style=&quot;font-size: 18px;&quot;&gt;Monolithic&lt;br&gt;Application&lt;/font&gt;" style="rounded=0;whiteSpace=wrap;html=1;" parent="1" vertex="1">
          <mxGeometry x="285" y="300" width="280" height="120" as="geometry" />
        </mxCell>
        <mxCell id="G_OCvJnUFlwm8RyXSFIp-3" value="&lt;font style=&quot;font-size: 14px;&quot;&gt;User&lt;/font&gt;" style="shape=umlActor;verticalLabelPosition=bottom;verticalAlign=top;html=1;outlineConnect=0;strokeWidth=2;" parent="1" vertex="1">
          <mxGeometry x="410" y="80" width="30" height="60" as="geometry" />
        </mxCell>
        <mxCell id="G_OCvJnUFlwm8RyXSFIp-4" value="" style="endArrow=classic;html=1;rounded=0;strokeWidth=1;" parent="1" edge="1">
          <mxGeometry width="50" height="50" relative="1" as="geometry">
            <mxPoint x="410" y="180" as="sourcePoint" />
            <mxPoint x="410" y="270" as="targetPoint" />
          </mxGeometry>
        </mxCell>
        <mxCell id="G_OCvJnUFlwm8RyXSFIp-5" value="" style="endArrow=none;html=1;rounded=0;strokeWidth=1;startArrow=classic;startFill=1;endFill=0;" parent="1" edge="1">
          <mxGeometry width="50" height="50" relative="1" as="geometry">
            <mxPoint x="439" y="180" as="sourcePoint" />
            <mxPoint x="439" y="270" as="targetPoint" />
          </mxGeometry>
        </mxCell>
        <mxCell id="G_OCvJnUFlwm8RyXSFIp-9" value="&lt;font color=&quot;#000000&quot;&gt;Whole application logic is composed in a single inseparable block&amp;nbsp;&lt;/font&gt;" style="shape=note;size=20;whiteSpace=wrap;html=1;fillColor=#F7E0EF;strokeColor=#996185;gradientColor=#d5739d;" parent="1" vertex="1">
          <mxGeometry x="530" y="410" width="130" height="80" as="geometry" />
        </mxCell>
        <mxCell id="tDxZiPs8mcvWKvYtlUrJ-1" value="&lt;font style=&quot;font-size: 14px;&quot;&gt;Monolithic Architecture&lt;/font&gt;" style="swimlane;whiteSpace=wrap;html=1;" parent="1" vertex="1">
          <mxGeometry x="160" y="10" width="530" height="600" as="geometry" />
        </mxCell>
      </root>
    </mxGraphModel>
  </diagram>
  <diagram id="p7v8FaMkht1ISDaOsvko" name="micro-teorija">
    <mxGraphModel dx="2284" dy="796" grid="1" gridSize="10" guides="1" tooltips="1" connect="1" arrows="1" fold="1" page="1" pageScale="1" pageWidth="850" pageHeight="1100" math="0" shadow="0">
      <root>
        <mxCell id="0" />
        <mxCell id="1" parent="0" />
        <mxCell id="Rze_LL0JPcmxFZn7ESAL-1" value="&lt;font style=&quot;font-size: 14px;&quot;&gt;User&lt;/font&gt;" style="shape=umlActor;verticalLabelPosition=bottom;verticalAlign=top;html=1;outlineConnect=0;strokeWidth=2;" parent="1" vertex="1">
          <mxGeometry x="411.5" y="100" width="30" height="60" as="geometry" />
        </mxCell>
        <mxCell id="Rze_LL0JPcmxFZn7ESAL-4" value="&lt;font style=&quot;font-size: 14px;&quot;&gt;API&lt;br&gt;Gateway&lt;/font&gt;" style="rounded=0;whiteSpace=wrap;html=1;" parent="1" vertex="1">
          <mxGeometry x="352" y="320" width="147" height="70" as="geometry" />
        </mxCell>
        <mxCell id="FSDzZzZgVAZxULS4MLTP-1" value="" style="endArrow=classic;html=1;rounded=0;strokeWidth=1;" parent="1" edge="1">
          <mxGeometry width="50" height="50" relative="1" as="geometry">
            <mxPoint x="412" y="199" as="sourcePoint" />
            <mxPoint x="412" y="289" as="targetPoint" />
          </mxGeometry>
        </mxCell>
        <mxCell id="FSDzZzZgVAZxULS4MLTP-2" value="" style="endArrow=none;html=1;rounded=0;strokeWidth=1;startArrow=classic;startFill=1;endFill=0;" parent="1" edge="1">
          <mxGeometry width="50" height="50" relative="1" as="geometry">
            <mxPoint x="441" y="199" as="sourcePoint" />
            <mxPoint x="441" y="289" as="targetPoint" />
          </mxGeometry>
        </mxCell>
        <mxCell id="FSDzZzZgVAZxULS4MLTP-3" value="&lt;font style=&quot;font-size: 14px;&quot;&gt;Microservice&lt;/font&gt;" style="rounded=0;whiteSpace=wrap;html=1;" parent="1" vertex="1">
          <mxGeometry x="360" y="520" width="130" height="80" as="geometry" />
        </mxCell>
        <mxCell id="FSDzZzZgVAZxULS4MLTP-4" value="&lt;font style=&quot;font-size: 14px;&quot;&gt;Microservice&lt;/font&gt;" style="rounded=0;whiteSpace=wrap;html=1;" parent="1" vertex="1">
          <mxGeometry x="530" y="520" width="130" height="80" as="geometry" />
        </mxCell>
        <mxCell id="FSDzZzZgVAZxULS4MLTP-5" value="&lt;font style=&quot;font-size: 14px;&quot;&gt;Microservice&lt;/font&gt;" style="rounded=0;whiteSpace=wrap;html=1;" parent="1" vertex="1">
          <mxGeometry x="700" y="520" width="130" height="80" as="geometry" />
        </mxCell>
        <mxCell id="FSDzZzZgVAZxULS4MLTP-6" value="&lt;font style=&quot;font-size: 14px;&quot;&gt;Microservice&lt;/font&gt;" style="rounded=0;whiteSpace=wrap;html=1;" parent="1" vertex="1">
          <mxGeometry x="190" y="520" width="130" height="80" as="geometry" />
        </mxCell>
        <mxCell id="FSDzZzZgVAZxULS4MLTP-7" value="&lt;font style=&quot;font-size: 14px;&quot;&gt;Microservice&lt;/font&gt;" style="rounded=0;whiteSpace=wrap;html=1;" parent="1" vertex="1">
          <mxGeometry x="20" y="520" width="130" height="80" as="geometry" />
        </mxCell>
        <mxCell id="yCSWkoXZiqARwsB9Ts2K-1" value="" style="endArrow=classic;html=1;rounded=0;entryX=0.5;entryY=0;entryDx=0;entryDy=0;exitX=0.5;exitY=1;exitDx=0;exitDy=0;" parent="1" source="Rze_LL0JPcmxFZn7ESAL-4" target="FSDzZzZgVAZxULS4MLTP-7" edge="1">
          <mxGeometry width="50" height="50" relative="1" as="geometry">
            <mxPoint x="390" y="430" as="sourcePoint" />
            <mxPoint x="440" y="380" as="targetPoint" />
          </mxGeometry>
        </mxCell>
        <mxCell id="yCSWkoXZiqARwsB9Ts2K-2" value="" style="endArrow=classic;html=1;rounded=0;entryX=0.5;entryY=0;entryDx=0;entryDy=0;exitX=0.5;exitY=1;exitDx=0;exitDy=0;" parent="1" source="Rze_LL0JPcmxFZn7ESAL-4" target="FSDzZzZgVAZxULS4MLTP-5" edge="1">
          <mxGeometry width="50" height="50" relative="1" as="geometry">
            <mxPoint x="390" y="430" as="sourcePoint" />
            <mxPoint x="440" y="380" as="targetPoint" />
          </mxGeometry>
        </mxCell>
        <mxCell id="yCSWkoXZiqARwsB9Ts2K-3" value="" style="endArrow=classic;html=1;rounded=0;entryX=0.5;entryY=0;entryDx=0;entryDy=0;" parent="1" edge="1">
          <mxGeometry width="50" height="50" relative="1" as="geometry">
            <mxPoint x="426" y="390" as="sourcePoint" />
            <mxPoint x="251" y="520" as="targetPoint" />
          </mxGeometry>
        </mxCell>
        <mxCell id="yCSWkoXZiqARwsB9Ts2K-4" value="" style="endArrow=classic;html=1;rounded=0;exitX=0.5;exitY=1;exitDx=0;exitDy=0;entryX=0.5;entryY=0;entryDx=0;entryDy=0;" parent="1" source="Rze_LL0JPcmxFZn7ESAL-4" target="FSDzZzZgVAZxULS4MLTP-3" edge="1">
          <mxGeometry width="50" height="50" relative="1" as="geometry">
            <mxPoint x="380" y="480" as="sourcePoint" />
            <mxPoint x="430" y="430" as="targetPoint" />
          </mxGeometry>
        </mxCell>
        <mxCell id="yCSWkoXZiqARwsB9Ts2K-5" value="" style="endArrow=classic;html=1;rounded=0;entryX=0.5;entryY=0;entryDx=0;entryDy=0;exitX=0.5;exitY=1;exitDx=0;exitDy=0;" parent="1" source="Rze_LL0JPcmxFZn7ESAL-4" target="FSDzZzZgVAZxULS4MLTP-4" edge="1">
          <mxGeometry width="50" height="50" relative="1" as="geometry">
            <mxPoint x="420" y="390" as="sourcePoint" />
            <mxPoint x="350" y="370" as="targetPoint" />
          </mxGeometry>
        </mxCell>
        <mxCell id="yCSWkoXZiqARwsB9Ts2K-6" value="Database" style="shape=datastore;whiteSpace=wrap;html=1;" parent="1" vertex="1">
          <mxGeometry x="140" y="680" width="60" height="80" as="geometry" />
        </mxCell>
        <mxCell id="yCSWkoXZiqARwsB9Ts2K-7" value="Database" style="shape=datastore;whiteSpace=wrap;html=1;" parent="1" vertex="1">
          <mxGeometry x="395" y="680" width="60" height="80" as="geometry" />
        </mxCell>
        <mxCell id="yCSWkoXZiqARwsB9Ts2K-9" value="" style="endArrow=classic;startArrow=classic;html=1;rounded=0;entryX=0.5;entryY=1;entryDx=0;entryDy=0;exitX=0.5;exitY=0;exitDx=0;exitDy=0;" parent="1" source="yCSWkoXZiqARwsB9Ts2K-6" target="FSDzZzZgVAZxULS4MLTP-6" edge="1">
          <mxGeometry width="50" height="50" relative="1" as="geometry">
            <mxPoint x="340" y="690" as="sourcePoint" />
            <mxPoint x="390" y="640" as="targetPoint" />
          </mxGeometry>
        </mxCell>
        <mxCell id="yCSWkoXZiqARwsB9Ts2K-10" value="" style="endArrow=classic;startArrow=classic;html=1;rounded=0;entryX=0.5;entryY=1;entryDx=0;entryDy=0;exitX=0.5;exitY=0;exitDx=0;exitDy=0;" parent="1" source="yCSWkoXZiqARwsB9Ts2K-6" target="FSDzZzZgVAZxULS4MLTP-7" edge="1">
          <mxGeometry width="50" height="50" relative="1" as="geometry">
            <mxPoint x="340" y="690" as="sourcePoint" />
            <mxPoint x="390" y="640" as="targetPoint" />
          </mxGeometry>
        </mxCell>
        <mxCell id="yCSWkoXZiqARwsB9Ts2K-11" value="" style="endArrow=classic;startArrow=classic;html=1;rounded=0;entryX=0.5;entryY=1;entryDx=0;entryDy=0;exitX=0.5;exitY=0;exitDx=0;exitDy=0;" parent="1" source="yCSWkoXZiqARwsB9Ts2K-7" target="FSDzZzZgVAZxULS4MLTP-3" edge="1">
          <mxGeometry width="50" height="50" relative="1" as="geometry">
            <mxPoint x="340" y="590" as="sourcePoint" />
            <mxPoint x="390" y="540" as="targetPoint" />
          </mxGeometry>
        </mxCell>
        <mxCell id="yCSWkoXZiqARwsB9Ts2K-12" value="" style="endArrow=classic;startArrow=classic;html=1;rounded=0;entryX=0.5;entryY=1;entryDx=0;entryDy=0;exitX=0.5;exitY=0;exitDx=0;exitDy=0;" parent="1" target="FSDzZzZgVAZxULS4MLTP-5" edge="1">
          <mxGeometry width="50" height="50" relative="1" as="geometry">
            <mxPoint x="765" y="680" as="sourcePoint" />
            <mxPoint x="390" y="540" as="targetPoint" />
          </mxGeometry>
        </mxCell>
        <mxCell id="yCSWkoXZiqARwsB9Ts2K-13" value="Cloud" style="ellipse;shape=cloud;whiteSpace=wrap;html=1;" parent="1" vertex="1">
          <mxGeometry x="705" y="670" width="120" height="80" as="geometry" />
        </mxCell>
        <mxCell id="yCSWkoXZiqARwsB9Ts2K-15" value="&lt;font style=&quot;font-size: 14px;&quot;&gt;Microservices Architecture&lt;/font&gt;" style="swimlane;whiteSpace=wrap;html=1;" parent="1" vertex="1">
          <mxGeometry x="-23.5" y="20" width="900" height="890" as="geometry" />
        </mxCell>
      </root>
    </mxGraphModel>
  </diagram>
  <diagram id="kAb7tNAWgczEu-BLD1fG" name="code struktura">
    <mxGraphModel dx="1434" dy="796" grid="1" gridSize="10" guides="1" tooltips="1" connect="1" arrows="1" fold="1" page="1" pageScale="1" pageWidth="850" pageHeight="1100" math="0" shadow="0">
      <root>
        <mxCell id="0" />
        <mxCell id="1" parent="0" />
      </root>
    </mxGraphModel>
  </diagram>
  <diagram id="3vQ5dPzzggDdSeRSpjjW" name="tehnologije">
    <mxGraphModel dx="1434" dy="796" grid="1" gridSize="10" guides="1" tooltips="1" connect="1" arrows="1" fold="1" page="1" pageScale="1" pageWidth="850" pageHeight="1100" math="0" shadow="0">
      <root>
        <mxCell id="0" />
        <mxCell id="1" parent="0" />
        <mxCell id="qeIA_Jut84CJZoJLX67R-1" value="" style="shape=image;verticalLabelPosition=bottom;labelBackgroundColor=default;verticalAlign=top;aspect=fixed;imageAspect=0;image=https://www.freepnglogos.com/uploads/logo-mysql-png/logo-mysql-mysql-logo-png-images-are-download-crazypng-21.png;" vertex="1" parent="1">
          <mxGeometry x="220" y="260" width="130" height="130" as="geometry" />
        </mxCell>
        <mxCell id="qeIA_Jut84CJZoJLX67R-4" value="" style="shape=datastore;whiteSpace=wrap;html=1;" vertex="1" parent="1">
          <mxGeometry x="200" y="350" width="70" height="90" as="geometry" />
        </mxCell>
        <mxCell id="qeIA_Jut84CJZoJLX67R-6" value="" style="shape=image;verticalLabelPosition=bottom;labelBackgroundColor=default;verticalAlign=top;aspect=fixed;imageAspect=0;image=https://upload.wikimedia.org/wikipedia/commons/thumb/9/93/MongoDB_Logo.svg/2560px-MongoDB_Logo.svg.png;" vertex="1" parent="1">
          <mxGeometry x="100" y="400" width="230" height="61.91" as="geometry" />
        </mxCell>
        <mxCell id="qeIA_Jut84CJZoJLX67R-7" value="&lt;font style=&quot;font-size: 20px;&quot;&gt;DATABASES&lt;/font&gt;" style="text;html=1;strokeColor=none;fillColor=none;align=center;verticalAlign=middle;whiteSpace=wrap;rounded=0;" vertex="1" parent="1">
          <mxGeometry x="197.5" y="210" width="75" height="30" as="geometry" />
        </mxCell>
        <mxCell id="qeIA_Jut84CJZoJLX67R-9" value="&lt;font style=&quot;font-size: 20px;&quot;&gt;COMMUNICATION&lt;/font&gt;" style="text;html=1;strokeColor=none;fillColor=none;align=center;verticalAlign=middle;whiteSpace=wrap;rounded=0;" vertex="1" parent="1">
          <mxGeometry x="605" y="100" width="75" height="30" as="geometry" />
        </mxCell>
        <mxCell id="qeIA_Jut84CJZoJLX67R-11" value="" style="rounded=1;whiteSpace=wrap;html=1;" vertex="1" parent="1">
          <mxGeometry x="553.52" y="180" width="56.48" height="40" as="geometry" />
        </mxCell>
        <mxCell id="qeIA_Jut84CJZoJLX67R-13" value="" style="rounded=1;whiteSpace=wrap;html=1;" vertex="1" parent="1">
          <mxGeometry x="670" y="180" width="56.48" height="40" as="geometry" />
        </mxCell>
        <mxCell id="qeIA_Jut84CJZoJLX67R-14" value="" style="endArrow=classic;html=1;rounded=0;exitX=1;exitY=0.75;exitDx=0;exitDy=0;entryX=0;entryY=0.75;entryDx=0;entryDy=0;" edge="1" parent="1" source="qeIA_Jut84CJZoJLX67R-11" target="qeIA_Jut84CJZoJLX67R-13">
          <mxGeometry width="50" height="50" relative="1" as="geometry">
            <mxPoint x="400" y="460" as="sourcePoint" />
            <mxPoint x="450" y="410" as="targetPoint" />
          </mxGeometry>
        </mxCell>
        <mxCell id="qeIA_Jut84CJZoJLX67R-15" value="" style="endArrow=classic;html=1;rounded=0;exitX=0;exitY=0.25;exitDx=0;exitDy=0;entryX=1;entryY=0.25;entryDx=0;entryDy=0;" edge="1" parent="1" source="qeIA_Jut84CJZoJLX67R-13" target="qeIA_Jut84CJZoJLX67R-11">
          <mxGeometry width="50" height="50" relative="1" as="geometry">
            <mxPoint x="400" y="460" as="sourcePoint" />
            <mxPoint x="450" y="410" as="targetPoint" />
          </mxGeometry>
        </mxCell>
        <mxCell id="qeIA_Jut84CJZoJLX67R-16" value="" style="endArrow=classic;html=1;rounded=0;entryX=0.5;entryY=1;entryDx=0;entryDy=0;exitX=1;exitY=0.5;exitDx=0;exitDy=0;" edge="1" parent="1" source="qeIA_Jut84CJZoJLX67R-13" target="qeIA_Jut84CJZoJLX67R-13">
          <mxGeometry width="50" height="50" relative="1" as="geometry">
            <mxPoint x="400" y="460" as="sourcePoint" />
            <mxPoint x="450" y="410" as="targetPoint" />
            <Array as="points">
              <mxPoint x="750" y="200" />
              <mxPoint x="750" y="250" />
              <mxPoint x="698" y="250" />
            </Array>
          </mxGeometry>
        </mxCell>
        <mxCell id="qeIA_Jut84CJZoJLX67R-10" value="" style="shape=image;verticalLabelPosition=bottom;labelBackgroundColor=default;verticalAlign=top;aspect=fixed;imageAspect=0;image=https://cdn.icon-icons.com/icons2/2699/PNG/512/apache_kafka_vertical_logo_icon_169585.png;" vertex="1" parent="1">
          <mxGeometry x="490" y="180" width="126.48" height="132.21" as="geometry" />
        </mxCell>
        <mxCell id="qeIA_Jut84CJZoJLX67R-19" value="" style="shape=image;verticalLabelPosition=bottom;labelBackgroundColor=default;verticalAlign=top;aspect=fixed;imageAspect=0;image=https://pic1.zhimg.com/v2-52729a4f02b0f894d204c62acabc3034_ipico.jpg;" vertex="1" parent="1">
          <mxGeometry x="710" y="210" width="120" height="120" as="geometry" />
        </mxCell>
        <mxCell id="qeIA_Jut84CJZoJLX67R-20" value="&lt;font style=&quot;font-size: 14px;&quot;&gt;&lt;b&gt;Resilience4J&lt;/b&gt;&lt;/font&gt;" style="text;html=1;strokeColor=none;fillColor=none;align=center;verticalAlign=middle;whiteSpace=wrap;rounded=0;" vertex="1" parent="1">
          <mxGeometry x="725" y="330" width="90" height="30" as="geometry" />
        </mxCell>
        <mxCell id="qeIA_Jut84CJZoJLX67R-22" value="&lt;font style=&quot;font-size: 20px;&quot;&gt;CONTAINERIZATION&lt;/font&gt;" style="text;html=1;strokeColor=none;fillColor=none;align=center;verticalAlign=middle;whiteSpace=wrap;rounded=0;" vertex="1" parent="1">
          <mxGeometry x="570" y="440" width="75" height="30" as="geometry" />
        </mxCell>
        <mxCell id="qeIA_Jut84CJZoJLX67R-23" value="" style="shape=image;verticalLabelPosition=bottom;labelBackgroundColor=default;verticalAlign=top;aspect=fixed;imageAspect=0;image=https://logos-world.net/wp-content/uploads/2021/02/Docker-Symbol.png;" vertex="1" parent="1">
          <mxGeometry x="400" y="490" width="245" height="137.81" as="geometry" />
        </mxCell>
        <mxCell id="qeIA_Jut84CJZoJLX67R-28" value="" style="shape=image;verticalLabelPosition=bottom;labelBackgroundColor=default;verticalAlign=top;aspect=fixed;imageAspect=0;image=https://desosa.nl/projects/docker-compose/2020/03/02/images/docker-compose/logo_docker_compose.png;" vertex="1" parent="1">
          <mxGeometry x="605" y="461.91" width="262.08" height="151" as="geometry" />
        </mxCell>
        <mxCell id="qeIA_Jut84CJZoJLX67R-29" value="" style="shape=image;verticalLabelPosition=bottom;labelBackgroundColor=default;verticalAlign=top;aspect=fixed;imageAspect=0;image=https://upload.wikimedia.org/wikipedia/en/thumb/3/30/Java_programming_language_logo.svg/1200px-Java_programming_language_logo.svg.png;" vertex="1" parent="1">
          <mxGeometry x="350" y="720" width="62.07" height="113.53" as="geometry" />
        </mxCell>
        <mxCell id="qeIA_Jut84CJZoJLX67R-30" value="&lt;font style=&quot;font-size: 20px;&quot;&gt;DISCOVERY&lt;/font&gt;" style="text;html=1;strokeColor=none;fillColor=none;align=center;verticalAlign=middle;whiteSpace=wrap;rounded=0;" vertex="1" parent="1">
          <mxGeometry x="220" y="60" width="75" height="30" as="geometry" />
        </mxCell>
        <mxCell id="qeIA_Jut84CJZoJLX67R-33" value="&lt;font style=&quot;font-size: 20px;&quot;&gt;DISTRIBUTED TRACING&lt;/font&gt;" style="text;html=1;strokeColor=none;fillColor=none;align=center;verticalAlign=middle;whiteSpace=wrap;rounded=0;" vertex="1" parent="1">
          <mxGeometry x="600" y="660" width="240" height="30" as="geometry" />
        </mxCell>
        <mxCell id="qeIA_Jut84CJZoJLX67R-38" value="" style="shape=image;verticalLabelPosition=bottom;labelBackgroundColor=default;verticalAlign=top;aspect=fixed;imageAspect=0;image=https://res.cloudinary.com/practicaldev/image/fetch/s--bya1Oep7--/c_imagga_scale,f_auto,fl_progressive,h_1080,q_auto,w_1080/https://dev-to-uploads.s3.amazonaws.com/i/oqg7p16w6aw5v6setdq6.png;" vertex="1" parent="1">
          <mxGeometry x="665" y="709.02" width="110" height="110" as="geometry" />
        </mxCell>
        <mxCell id="qeIA_Jut84CJZoJLX67R-39" value="" style="shape=image;verticalLabelPosition=bottom;labelBackgroundColor=default;verticalAlign=top;aspect=fixed;imageAspect=0;image=https://miro.medium.com/v2/resize:fit:700/1*-uckV8DOh3l0bCvqZ73zYg.png;" vertex="1" parent="1">
          <mxGeometry x="88.33" y="770" width="206.67" height="88.57" as="geometry" />
        </mxCell>
        <mxCell id="qeIA_Jut84CJZoJLX67R-40" value="&lt;font style=&quot;font-size: 20px;&quot;&gt;GATEWAY&lt;/font&gt;" style="text;html=1;strokeColor=none;fillColor=none;align=center;verticalAlign=middle;whiteSpace=wrap;rounded=0;" vertex="1" parent="1">
          <mxGeometry x="154.15999999999997" y="535" width="75" height="30" as="geometry" />
        </mxCell>
        <mxCell id="qeIA_Jut84CJZoJLX67R-42" value="" style="shape=image;verticalLabelPosition=bottom;labelBackgroundColor=default;verticalAlign=top;aspect=fixed;imageAspect=0;image=https://wstutorial.com/img/topics/apig/spring-cloud-gateway.png;" vertex="1" parent="1">
          <mxGeometry x="120" y="580" width="175" height="63.63" as="geometry" />
        </mxCell>
        <mxCell id="qeIA_Jut84CJZoJLX67R-43" value="Technologies used" style="swimlane;whiteSpace=wrap;html=1;" vertex="1" parent="1">
          <mxGeometry x="50" y="20" width="830" height="850" as="geometry" />
        </mxCell>
        <mxCell id="qeIA_Jut84CJZoJLX67R-45" value="" style="shape=image;verticalLabelPosition=bottom;labelBackgroundColor=default;verticalAlign=top;aspect=fixed;imageAspect=0;image=https://res.cloudinary.com/practicaldev/image/fetch/s--HDiaSQsV--/c_imagga_scale,f_auto,fl_progressive,h_900,q_auto,w_1600/https://dev-to-uploads.s3.amazonaws.com/uploads/articles/wwycjvnbruj9d7lsfj6d.png;clipPath=inset(48.22% 15.33% 21.6% 51.33%);" vertex="1" parent="qeIA_Jut84CJZoJLX67R-43">
          <mxGeometry x="129.07" y="70" width="156.86" height="80" as="geometry" />
        </mxCell>
      </root>
    </mxGraphModel>
  </diagram>
</mxfile>
